<?xml version="1.0" standalone="no"?><!DOCTYPE svg PUBLIC "-//W3C//DTD SVG 1.1//EN" "http://www.w3.org/Graphics/SVG/1.1/DTD/svg11.dtd"><svg class="icon" width="200px" height="200.00px" viewBox="0 0 1024 1024" version="1.1" xmlns="http://www.w3.org/2000/svg"><path fill="#ffffff" d="M265.705472 607.012864l50.870272 0 0 30.281728-50.870272 0 0-30.281728ZM403.789824 603.383808l53.305344 0 0 50.870272-53.305344 0 0-50.870272ZM265.705472 556.140544l50.870272 0 0 30.281728-50.870272 0 0-30.281728ZM665.20064 314.359808l105.385984 0 0 19.380224-105.385984 0 0-19.380224ZM665.20064 353.122304l105.385984 0 0 19.380224-105.385984 0 0-19.380224ZM26.714112 0l0 1023.315968L505.09824 899.2768l498.417664 124.039168L1003.515904 0 26.714112 0zM216.027136 181.127168l35.13344 0L251.160576 156.909568l24.219648 0 0 24.2176 38.762496 0L314.14272 156.909568l24.219648 0 0 24.2176 35.13344 0 0 23.00928-35.13344 0 0 26.652672L314.14272 230.78912 314.14272 204.136448l-38.762496 0 0 16.961536-24.219648 0 0-16.961536-35.13344 0L216.027136 181.127168zM252.356608 227.145728l21.798912 7.272448-6.06208 15.753216 93.27616 0c0 88.84224-2.83648 141.52704-8.480768 158.070784-5.658624 16.543744-17.381376 24.838144-35.13344 24.838144-8.077312 0-17.768448-0.806912-29.07136-2.418688l-4.837376-23.00928c12.109824 1.611776 22.591488 2.418688 31.490048 2.418688 7.272448 0 12.12416-6.06208 14.542848-18.171904 2.433024-12.109824 4.43392-52.08064 6.06208-119.914496L257.20832 271.98464c-3.2256 8.077312-7.673856 15.736832-13.318144 23.00928l69.042176 0 0 82.362368-52.08064 0 0 20.590592-23.00928 0 0-93.27616c-4.046848 5.658624-8.480768 10.512384-13.348864 14.528512l-12.109824-20.590592C230.944768 276.015104 244.277248 252.184576 252.356608 227.145728zM213.639168 688.1792l27.86304 0 0-132.038656-24.219648 0 0-21.798912 24.219648 0 0-36.343808 24.219648 0 0 36.343808 50.870272 0 0-36.343808 24.219648 0 0 36.343808 24.219648 0 0 21.798912-24.219648 0 0 132.038656 23.00928 0 0.03072 0 0 21.798912-150.21056 0L213.641216 688.1792zM235.423744 777.814016l-18.171904-20.590592c18.558976-12.12416 33.50528-25.84576 44.824576-41.181184l20.590592 13.318144C268.931072 749.533184 253.177856 765.704192 235.423744 777.814016zM326.281216 765.704192c-6.48192-12.931072-14.962688-25.442304-25.442304-37.552128l19.380224-12.109824c10.496 12.109824 18.978816 25.040896 25.442304 38.762496L326.281216 765.704192zM481.329152 741.486592c0 11.302912-2.433024 19.78368-7.272448 25.444352-4.837376 5.644288-12.109824 8.480768-21.798912 8.480768-7.272448 0-16.961536-0.806912-29.07136-2.418688l-6.06208-25.444352c12.900352 2.418688 23.00928 3.627008 30.281728 3.627008 6.449152 0 9.691136-5.644288 9.691136-16.961536l0-58.14272-55.724032 0c-4.046848 37.148672-14.14144 70.670336-30.281728 100.532224l-21.798912-15.753216c19.380224-33.92512 29.07136-71.477248 29.07136-112.658432l0-140.488704 102.967296 0L481.3312 741.486592zM475.283456 436.723712c-14.528512-15.34976-27.860992-33.50528-39.970816-54.515712-12.931072 21.815296-29.4912 39.970816-49.661952 54.515712l-15.753216-20.590592c20.994048-15.333376 37.9392-35.520512 50.87232-60.561408-10.512384-21.798912-19.800064-46.823424-27.86304-75.104256l-9.691136 18.171904-19.380224-14.542848c19.380224-37.134336 33.490944-79.52384 42.389504-127.184896l21.798912 7.272448c-3.239936 15.333376-6.868992 29.878272-10.899456 43.599872l75.104256 0 0 23.00928-16.961536 0c-4.061184 51.677184-13.334528 93.679616-27.846656 125.99296 12.109824 21.008384 27.4432 40.390656 46.032896 58.14272L475.283456 436.723712zM619.167744 255.00672l84.795392 0 0-19.380224L642.19136 235.626496l0-20.590592 61.771776 0 0-19.380224L630.0672 195.65568 630.0672 175.065088l73.895936 0 0-18.171904 24.219648 0 0 18.171904 81.152 0 0 20.590592-81.152 0 0 19.380224 71.460864 0 0 20.590592-71.460864 0 0 19.380224 89.632768 0 0 20.590592-198.647808 0L619.167744 255.00672zM665.16992 391.868416l0 43.599872-24.219648 0 0-140.505088 153.837568 0 0 111.448064c0 9.691136-2.83648 16.961536-8.480768 21.798912-5.658624 4.85376-13.737984 7.272448-24.219648 7.272448-7.256064 0-15.34976-0.806912-24.219648-2.418688l-6.06208-23.00928c12.914688 1.611776 22.605824 2.418688 29.07136 2.418688s9.691136-4.046848 9.674752-12.12416l0-8.480768L665.16992 391.868416zM584.034304 156.893184c12.900352 16.156672 23.412736 33.118208 31.490048 50.870272l-23.00928 13.318144c-7.272448-17.752064-17.364992-34.699264-30.281728-50.870272L584.034304 156.893184zM539.224064 246.525952l62.980096 0 0 133.249024 15.753216-21.798912 14.542848 13.318144c-8.900608 16.961536-20.590592 33.118208-35.13344 48.451584l-18.171904-15.753216 0-135.665664-39.970816 0L539.224064 246.525952zM622.811136 508.89728c-15.34976 29.878272-37.971968 55.724032-67.833856 77.522944l-14.542848-19.380224c28.250112-21.798912 48.840704-44.824576 61.786112-69.042176L622.811136 508.89728zM600.99584 627.603456l0 150.21056L577.98656 777.814016 577.98656 651.83744c-9.691136 9.691136-18.171904 17.364992-25.442304 23.00928l-14.542848-19.380224c32.29696-25.831424 57.335808-55.30624 75.104256-88.424448l20.590592 10.899456C625.616896 594.096128 614.71744 610.639872 600.99584 627.603456zM634.904576 591.273984l81.168384 0 0-36.343808-65.415168 0 0-21.798912 65.415168 0 0-36.343808 24.219648 0 0 36.343808 65.415168 0 0 21.798912L740.29056 554.930176l0 36.343808 76.314624 0 0 23.00928-181.700608 0L634.904576 591.273984zM684.566528 737.826816c-5.658624-16.140288-13.318144-30.6688-23.00928-43.599872l21.798912-9.691136c9.674752 12.914688 17.754112 27.056128 24.219648 42.389504L684.566528 737.826816zM817.846272 672.411648l-33.92512 0 0 72.685568c0 12.12416-2.635776 20.38784-7.876608 24.838144-5.255168 4.43392-15.132672 6.66624-29.67552 6.66624-11.317248 0-22.622208-1.20832-33.92512-3.627008l-3.629056-25.444352c12.914688 3.209216 25.442304 4.837376 37.552128 4.837376 8.869888 0 13.318144-4.030464 13.318144-12.109824l0-67.833856-122.34752 0 0-23.00928 122.34752 0 0-26.652672 24.219648 0 0.014336 0 0 26.636288 33.92512 0L817.844224 672.411648zM260.851712 315.568128l27.86304 0 0 41.181184-27.86304 0 0-41.181184ZM265.705472 657.89952l50.870272 0 0 30.281728-50.870272 0 0-30.281728ZM403.789824 530.69824l53.305344 0 0 50.870272-53.305344 0 0-50.870272ZM411.047936 230.78912c-2.418688 5.658624-4.046848 10.094592-4.837376 13.318144 7.272448 33.134592 16.156672 60.981248 26.652672 83.587072 8.884224-26.652672 14.92992-58.949632 18.15552-96.905216L411.047936 230.78912z" /></svg>