<?xml version="1.0" standalone="no"?><!DOCTYPE svg PUBLIC "-//W3C//DTD SVG 1.1//EN" "http://www.w3.org/Graphics/SVG/1.1/DTD/svg11.dtd"><svg class="icon" width="200px" height="200.00px" viewBox="0 0 1024 1024" version="1.1" xmlns="http://www.w3.org/2000/svg"><path fill="#333333" d="M736.25088 39.36256c-88.10496 0-169.78432 44.34432-224.0512 117.2736C458.52672 83.70176 376.25856 39.36256 288.1536 39.36256 129.4592 39.36256 0.512 180.5568 0.512 353.8432c0 103.2704 46.09024 176.2048 83.4304 234.5472 107.93984 169.78944 379.83232 380.41088 391.49568 389.16608a58.80832 58.80832 0 0 0 36.75648 12.83584c12.83584 0 25.67168-4.08576 36.75648-12.83584 11.6736-8.7552 282.97728-219.96544 391.5008-389.16608 37.34528-58.34752 83.43552-131.2768 83.43552-234.5472 0.00512-173.2864-128.93696-314.48064-287.63648-314.48064z m130.10432 547.2768c-99.7632 140.02688-310.97344 299.89376-321.47968 307.47648-9.91744 7.58784-21.59104 11.6736-32.67584 11.6736-11.66848 0-22.75328-3.50208-32.67072-11.6736-10.50624-7.5776-217.63072-169.19552-321.4848-313.30816-33.2544-52.51072-86.3488-117.85728-86.3488-210.03776 0-155.20256 86.3488-264.30464 228.13184-264.30464 78.76608 0 164.53632 75.264 212.37248 140.61056 48.43008-65.34656 133.61152-140.61056 212.3776-140.61056 142.3616 0 234.55232 109.10208 234.55232 264.30464 0 92.17536-58.93632 163.9424-92.7744 215.86944z"  /></svg>